<svg width="136" height="32" viewBox="0 0 136 32" fill="none" xmlns="http://www.w3.org/2000/svg">
<path d="M32.1807 14.505V12.7001C32.1807 12.5398 32.2284 12.4294 32.324 12.3695C32.4195 12.3089 32.5151 12.2793 32.6113 12.2793C32.7205 12.2793 32.8467 12.2995 32.9901 12.3392C33.1334 12.3796 33.2392 12.4065 33.3074 12.4193C33.5395 12.4867 33.8882 12.554 34.3523 12.62C34.817 12.6873 35.1856 12.7209 35.4585 12.7209C36.0598 12.7209 36.5341 12.5971 36.8828 12.3493C37.2309 12.1022 37.4056 11.7649 37.4056 11.3368C37.4056 10.7079 37.0118 10.1202 36.2263 9.57218C35.6571 9.21132 35.2367 8.94337 34.9658 8.76967C33.9626 8.11528 33.2788 7.56052 32.9123 7.10541C32.4243 6.50353 32.1807 5.75488 32.1807 4.85946C32.1807 3.62945 32.6004 2.69296 33.4412 2.05136C34.2813 1.40976 35.4196 1.08862 36.8562 1.08862C37.48 1.08862 38.0963 1.14248 38.7064 1.24953C39.6277 1.40976 40.0884 1.64337 40.0884 1.95172V3.75602V3.89672C40.0481 4.05696 39.9328 4.13774 39.7431 4.13774L38.7671 3.95664C38.2116 3.85027 37.8629 3.78631 37.7202 3.76611C37.5783 3.74659 37.3647 3.73649 37.0801 3.73649C36.5239 3.73649 36.1212 3.82334 35.8708 3.99704C35.6196 4.17073 35.494 4.38483 35.494 4.63864C35.494 5.09375 36.2598 5.80874 37.7919 6.78427C38.6859 7.37269 39.3363 7.92744 39.7431 8.44921C40.3934 9.27797 40.719 10.2542 40.719 11.3771C40.719 12.6341 40.2727 13.6265 39.3807 14.3549C38.4894 15.0834 37.2671 15.4476 35.7145 15.4476C35.2108 15.4476 34.6389 15.4112 33.9988 15.3372C33.3586 15.2645 32.8891 15.1668 32.5895 15.047C32.412 14.9797 32.3001 14.8996 32.2523 14.806C32.2046 14.7131 32.1807 14.6121 32.1807 14.505Z" fill="#1D1D1B"/>
<path d="M42.752 10.8351V1.9516C42.752 1.71057 42.7793 1.55034 42.8332 1.47023C42.9417 1.32278 43.1512 1.2494 43.4631 1.2494H45.0491C45.361 1.2494 45.5576 1.30663 45.6388 1.42041C45.72 1.53418 45.7609 1.71057 45.7609 1.9516V10.8155C45.7609 11.3238 45.8149 11.7049 45.9234 11.9587C46.1397 12.467 46.5601 12.7208 47.1839 12.7208C47.6855 12.7208 48.0479 12.5734 48.271 12.2798C48.4949 11.9856 48.6068 11.4969 48.6068 10.8155V1.9516C48.6068 1.71057 48.6341 1.55034 48.688 1.47023C48.7965 1.32278 49.0067 1.2494 49.3186 1.2494H50.904C51.2152 1.2494 51.4118 1.30663 51.4936 1.42041C51.5749 1.53418 51.6151 1.71057 51.6151 1.9516V10.8351C51.6151 12.026 51.3845 12.9881 50.9245 13.7233C50.2058 14.8732 48.959 15.4481 47.1839 15.4481C45.4081 15.4481 44.1612 14.8799 43.4433 13.7428C42.9819 13.0083 42.752 12.0388 42.752 10.8351Z" fill="#1D1D1B"/>
<path d="M56.677 7.02508H57.8563C58.3709 7.02508 58.8083 6.87427 59.1673 6.57401C59.5263 6.27307 59.7058 5.88191 59.7058 5.40054C59.7058 4.9461 59.5775 4.58524 59.3202 4.31796C58.9946 3.98336 58.4992 3.8164 57.8358 3.8164H56.7179C56.5412 3.8164 56.4531 3.90324 56.4531 4.07694V6.82445C56.4531 6.95776 56.5275 7.02508 56.677 7.02508ZM54.156 1.24931H57.8563C59.8893 1.24931 61.3184 1.77781 62.1456 2.83346C62.6874 3.52959 62.9591 4.43107 62.9591 5.54125C62.9591 6.90457 62.508 7.9279 61.6071 8.6099C60.7056 9.29122 59.5229 9.63188 58.059 9.63188H56.7582C56.5548 9.63188 56.4531 9.7322 56.4531 9.93282V14.5849C56.4531 14.8933 56.3951 15.0872 56.2805 15.1673C56.1651 15.2474 55.9856 15.2871 55.742 15.2871H54.156C53.9123 15.2871 53.7492 15.2602 53.668 15.207C53.5192 15.1 53.4448 14.8933 53.4448 14.5849V1.95151C53.4448 1.71049 53.4714 1.55025 53.526 1.47014C53.6345 1.3227 53.8441 1.24931 54.156 1.24931Z" fill="#1D1D1B"/>
<path d="M67.4111 7.02508H68.5897C69.1043 7.02508 69.5417 6.87427 69.9007 6.57401C70.2597 6.27307 70.4392 5.88191 70.4392 5.40054C70.4392 4.9461 70.3109 4.58524 70.0536 4.31796C69.7287 3.98336 69.2332 3.8164 68.5692 3.8164H67.4513C67.2752 3.8164 67.1872 3.90324 67.1872 4.07694V6.82445C67.1872 6.95776 67.2616 7.02508 67.4111 7.02508ZM64.89 1.24931H68.5897C70.6227 1.24931 72.0525 1.77781 72.879 2.83346C73.4215 3.52959 73.6925 4.43107 73.6925 5.54125C73.6925 6.90457 73.2414 7.9279 72.3405 8.6099C71.439 9.29122 70.2569 9.63188 68.7931 9.63188H67.4923C67.2882 9.63188 67.1872 9.7322 67.1872 9.93282V14.5849C67.1872 14.8933 67.1292 15.0872 67.0139 15.1673C66.8992 15.2474 66.719 15.2871 66.4754 15.2871H64.89C64.6457 15.2871 64.4833 15.2602 64.4021 15.207C64.2526 15.1 64.1782 14.8933 64.1782 14.5849V1.95151C64.1782 1.71049 64.2055 1.55025 64.2594 1.47014C64.3679 1.3227 64.5781 1.24931 64.89 1.24931Z" fill="#1D1D1B"/>
<path d="M74.9121 14.5853V1.95114C74.9121 1.71079 74.9394 1.55056 74.9933 1.47044C75.1018 1.323 75.3114 1.24894 75.6232 1.24894H77.2093C77.5212 1.24894 77.717 1.30617 77.7983 1.41995C77.8801 1.53373 77.9211 1.71079 77.9211 1.95114V12.4396C77.9211 12.6005 77.9955 12.6806 78.1443 12.6806H81.9251C82.1558 12.6806 82.3053 12.7237 82.3735 12.8106C82.4404 12.8974 82.4745 13.0213 82.4745 13.1815V14.5853C82.4745 14.8256 82.4472 14.9865 82.3933 15.0666C82.2848 15.2141 82.0746 15.2874 81.7627 15.2874H75.6232C75.3796 15.2874 75.2165 15.2605 75.1353 15.2073C74.9858 15.1003 74.9121 14.8929 74.9121 14.5853Z" fill="#1D1D1B"/>
<path d="M83.5923 14.5853V1.95114C83.5923 1.71079 83.6196 1.55056 83.6735 1.47044C83.782 1.323 83.9915 1.24894 84.3041 1.24894H90.9718C91.2837 1.24894 91.4802 1.30617 91.5614 1.41995C91.6426 1.53373 91.6829 1.71079 91.6829 1.95114V3.37572C91.6829 3.52249 91.6324 3.63896 91.5307 3.72581C91.429 3.81333 91.27 3.85642 91.0537 3.85642H86.9671C86.7228 3.85642 86.6006 3.96414 86.6006 4.17756V6.28279C86.6006 6.52314 86.6757 6.64365 86.8244 6.64365H90.0361C90.1719 6.64365 90.2839 6.67732 90.3726 6.74464C90.4599 6.81129 90.5043 6.90487 90.5043 7.02538V8.84988C90.5043 9.11783 90.3685 9.25113 90.0975 9.25113H86.8654C86.6886 9.25113 86.6006 9.36491 86.6006 9.59179V12.4396C86.6006 12.6005 86.6757 12.6806 86.8244 12.6806H91.3983C91.629 12.6806 91.7778 12.7237 91.846 12.8106C91.9136 12.8974 91.9477 13.0213 91.9477 13.1815V14.5853C91.9477 14.8256 91.9204 14.9865 91.8665 15.0666C91.758 15.2141 91.5478 15.2874 91.2359 15.2874H84.3041C84.0598 15.2874 83.8967 15.2605 83.8155 15.2073C83.666 15.1003 83.5923 14.8929 83.5923 14.5853Z" fill="#1D1D1B"/>
<path d="M96.4805 7.22558V14.5855C96.4805 14.8932 96.4231 15.0871 96.3078 15.1672C96.1925 15.2473 96.013 15.2877 95.7693 15.2877H94.184C93.9397 15.2877 93.7772 15.2608 93.696 15.2069C93.5466 15.0999 93.4722 14.8932 93.4722 14.5855V1.95138C93.4722 1.71103 93.4995 1.55013 93.5534 1.47001C93.6619 1.32257 93.8721 1.24919 94.184 1.24919H95.9925C96.1959 1.24919 96.372 1.31651 96.5214 1.44981C96.6026 1.51714 96.6702 1.61005 96.7248 1.73056L98.9203 6.06221C98.9469 6.12954 98.9844 6.20225 99.0322 6.28304C99.08 6.36316 99.1237 6.40288 99.1646 6.40288C99.2185 6.40288 99.269 6.35306 99.3168 6.25342C99.3646 6.15243 99.3878 6.09588 99.3878 6.08241L101.584 1.79115C101.692 1.59052 101.807 1.44981 101.929 1.3697C102.051 1.28958 102.193 1.24919 102.356 1.24919H104.063C104.375 1.24919 104.571 1.30641 104.653 1.42019C104.734 1.53397 104.774 1.71103 104.774 1.95138V14.5855C104.774 14.8932 104.717 15.0871 104.602 15.1672C104.486 15.2473 104.308 15.2877 104.063 15.2877H102.478C102.166 15.2877 101.97 15.2311 101.888 15.1174C101.807 15.0036 101.766 14.8258 101.766 14.5855V7.44641C101.739 7.36629 101.712 7.3259 101.685 7.3259L101.624 7.36629L100.038 11.1365C99.9569 11.3499 99.8757 11.4906 99.7938 11.5579C99.7126 11.6246 99.6116 11.6576 99.4895 11.6576H98.7981C98.5681 11.6576 98.3845 11.4839 98.2494 11.1365L96.6231 7.20539C96.5685 7.21885 96.5214 7.22558 96.4805 7.22558Z" fill="#1D1D1B"/>
<path d="M106.401 14.5853V1.95114C106.401 1.71079 106.428 1.55056 106.482 1.47044C106.591 1.323 106.801 1.24894 107.113 1.24894H113.78C114.092 1.24894 114.289 1.30617 114.37 1.41995C114.451 1.53373 114.491 1.71079 114.491 1.95114V3.37572C114.491 3.52249 114.441 3.63896 114.339 3.72581C114.238 3.81333 114.079 3.85642 113.862 3.85642H109.776C109.531 3.85642 109.409 3.96414 109.409 4.17756V6.28279C109.409 6.52314 109.484 6.64365 109.633 6.64365H112.845C112.981 6.64365 113.092 6.67732 113.181 6.74464C113.269 6.81129 113.313 6.90487 113.313 7.02538V8.84988C113.313 9.11783 113.177 9.25113 112.906 9.25113H109.674C109.497 9.25113 109.409 9.36491 109.409 9.59179V12.4396C109.409 12.6005 109.484 12.6806 109.633 12.6806H114.207C114.438 12.6806 114.586 12.7237 114.655 12.8106C114.722 12.8974 114.756 13.0213 114.756 13.1815V14.5853C114.756 14.8256 114.729 14.9865 114.675 15.0666C114.567 15.2141 114.356 15.2874 114.044 15.2874H107.113C106.869 15.2874 106.706 15.2605 106.625 15.2073C106.475 15.1003 106.401 14.8929 106.401 14.5853Z" fill="#1D1D1B"/>
<path d="M122.258 8.1079V1.95108C122.258 1.71073 122.284 1.5505 122.339 1.47038C122.447 1.32294 122.657 1.24888 122.969 1.24888H124.494C124.805 1.24888 125.002 1.30611 125.084 1.41989C125.165 1.53366 125.205 1.71073 125.205 1.95108V14.5852C125.205 14.8262 125.178 14.9864 125.124 15.0666C125.016 15.214 124.805 15.2874 124.494 15.2874H123.193C122.949 15.2874 122.779 15.247 122.684 15.1669C122.643 15.1399 122.589 15.047 122.522 14.8861L119.229 7.72752V14.5852C119.229 14.8929 119.171 15.0868 119.056 15.1669C118.941 15.247 118.761 15.2874 118.517 15.2874H116.993C116.749 15.2874 116.586 15.2605 116.505 15.2073C116.356 15.1002 116.281 14.8929 116.281 14.5852V1.95108C116.281 1.71073 116.308 1.5505 116.362 1.47038C116.471 1.32294 116.681 1.24888 116.993 1.24888H118.578C118.944 1.24888 119.195 1.40979 119.33 1.73025L122.258 8.1079Z" fill="#1D1D1B"/>
<path d="M126.568 1.24925H135.573C135.736 1.24925 135.848 1.29907 135.909 1.40006C135.969 1.50037 136 1.61011 136 1.73062V3.51539C136 3.79613 135.857 3.93684 135.573 3.93684H132.93C132.687 3.93684 132.564 4.05735 132.564 4.2977V14.5856C132.564 14.8259 132.537 14.9861 132.483 15.0663C132.375 15.2137 132.165 15.2878 131.853 15.2878H130.267C129.955 15.2878 129.759 15.2312 129.678 15.1174C129.596 15.0036 129.555 14.8259 129.555 14.5856V4.2977C129.555 4.05735 129.433 3.93684 129.19 3.93684H126.628C126.29 3.93684 126.121 3.80354 126.121 3.53559V1.6303C126.121 1.37649 126.269 1.24925 126.568 1.24925Z" fill="#1D1D1B"/>
<path d="M35.3807 26.394V24.8806C35.3807 24.789 35.4216 24.7028 35.5042 24.6227C35.5854 24.5426 35.6734 24.5022 35.7669 24.5022H39.2632C39.5212 24.5022 39.6502 24.6294 39.6502 24.8833V28.2367C39.6502 29.0904 39.4748 29.7872 39.1226 30.3291C38.5255 31.2394 37.4717 31.6951 35.9608 31.6951C34.7419 31.6951 33.8287 31.4757 33.22 31.0367C32.2591 30.3433 31.7793 29.0776 31.7793 27.241V23.5839C31.7793 21.7809 32.3471 20.5503 33.4834 19.8925C34.1741 19.4879 35.1643 19.2852 36.4528 19.2852C37.5884 19.2852 38.3439 19.3781 38.7193 19.5633C38.9302 19.667 39.0353 19.846 39.0353 20.0999V21.5736C39.0353 21.7237 39.0291 21.816 39.0175 21.851C38.9704 21.9661 38.8708 22.024 38.7193 22.024C38.3794 21.9432 38.0252 21.8705 37.656 21.8079C37.2868 21.7439 36.9094 21.7123 36.5224 21.7123C35.5854 21.7123 34.965 21.9836 34.6607 22.5269C34.473 22.8622 34.3795 23.4163 34.3795 24.1905V26.6519C34.3795 27.5298 34.4259 28.1303 34.5201 28.4541C34.7071 29.1126 35.1234 29.4418 35.7669 29.4418C36.2358 29.4418 36.5757 29.2863 36.7865 28.9739C36.9619 28.7086 37.05 28.3498 37.05 27.8994V27.1023C37.05 27.01 37.0322 26.9286 36.9974 26.8592C36.9619 26.7906 36.8684 26.7555 36.7162 26.7555H35.7499C35.5042 26.7555 35.3807 26.635 35.3807 26.394Z" fill="#265AA6"/>
<path d="M43.129 21.9371V24.0517C43.129 24.2248 43.2109 24.3116 43.3747 24.3116H44.2005C44.6925 24.3116 45.0849 24.1904 45.3777 23.9474C45.6705 23.705 45.8172 23.3819 45.8172 22.9772C45.8172 22.6076 45.7053 22.3074 45.4835 22.0758C45.2023 21.7869 44.7744 21.6429 44.2005 21.6429H43.4272C43.2286 21.6429 43.129 21.7412 43.129 21.9371ZM41.1437 19.4245H44.3943C45.8814 19.4245 46.9945 19.7995 47.7322 20.5502C48.3294 21.1514 48.6283 21.9088 48.6283 22.821C48.6283 23.6532 48.429 24.3466 48.0311 24.9007C47.7145 25.3518 47.3221 25.6574 46.8539 25.8197C46.7481 25.8432 46.6956 25.8951 46.6956 25.9759C46.6956 26.0452 46.7249 26.1374 46.7829 26.2526L48.9798 30.9323C49.0146 31.0252 49.0323 31.106 49.0323 31.1753C49.0323 31.4298 48.8917 31.5564 48.6106 31.5564H46.7829C46.5256 31.5564 46.3441 31.5046 46.239 31.4009C46.2035 31.3659 46.1626 31.2965 46.1155 31.1922L44.0251 26.6861C43.9425 26.5246 43.8197 26.4431 43.6559 26.4431H43.3221C43.1932 26.4431 43.129 26.5131 43.129 26.6518V30.9498C43.129 31.2157 43.0792 31.3827 42.9795 31.4527C42.8799 31.5214 42.725 31.5564 42.5141 31.5564H41.1437C40.9328 31.5564 40.7922 31.5335 40.7219 31.4877C40.593 31.3948 40.5288 31.2157 40.5288 30.9498V20.0311C40.5288 19.8224 40.552 19.6837 40.5991 19.6151C40.6926 19.4878 40.8741 19.4245 41.1437 19.4245Z" fill="#265AA6"/>
<path d="M54.4607 26.8424V24.138C54.4607 23.2378 54.4081 22.6245 54.303 22.3014C54.1386 21.7931 53.7816 21.5386 53.2309 21.5386C52.6801 21.5386 52.3232 21.787 52.1594 22.2839C52.0536 22.6077 52.0011 23.2257 52.0011 24.138V26.8424C52.0011 27.7432 52.0536 28.3559 52.1594 28.6797C52.3232 29.188 52.6801 29.4418 53.2309 29.4418C53.7816 29.4418 54.1386 29.1934 54.303 28.6965C54.4081 28.3734 54.4607 27.7546 54.4607 26.8424ZM49.4009 27.1366V23.8438C49.4009 22.6885 49.5531 21.787 49.8574 21.14C50.443 19.9033 51.5677 19.2852 53.2309 19.2852C54.7883 19.2852 55.872 19.8407 56.4815 20.9495C56.8677 21.6544 57.0609 22.6198 57.0609 23.8438V27.1366C57.0609 28.2811 56.9087 29.1765 56.6043 29.8235C56.0187 31.071 54.894 31.6951 53.2309 31.6951C51.9308 31.6951 50.9671 31.3222 50.3406 30.5776C49.7141 29.8316 49.4009 28.6851 49.4009 27.1366Z" fill="#265AA6"/>
<path d="M58.1147 27.709V20.0313C58.1147 19.8226 58.1379 19.6839 58.185 19.6152C58.2785 19.488 58.4601 19.424 58.7296 19.424H60.1C60.3696 19.424 60.5395 19.4739 60.6098 19.5715C60.6801 19.6704 60.7149 19.8226 60.7149 20.0313V27.6915C60.7149 28.1304 60.7613 28.4597 60.8555 28.6791C61.0432 29.1188 61.4063 29.3382 61.9447 29.3382C62.3781 29.3382 62.6914 29.211 62.8845 28.9572C63.0776 28.7027 63.1745 28.2812 63.1745 27.6915V20.0313C63.1745 19.8226 63.1977 19.6839 63.2448 19.6152C63.3383 19.488 63.5199 19.424 63.7894 19.424H65.1598C65.4287 19.424 65.5993 19.4739 65.6696 19.5715C65.7392 19.6704 65.7747 19.8226 65.7747 20.0313V27.709C65.7747 28.737 65.5755 29.5692 65.1776 30.2047C64.5565 31.1984 63.4789 31.6953 61.9447 31.6953C60.4106 31.6953 59.3329 31.2038 58.7119 30.2215C58.314 29.5867 58.1147 28.7485 58.1147 27.709Z" fill="#265AA6"/>
<path d="M69.7103 24.4157H70.7299C71.1749 24.4157 71.5523 24.2858 71.8628 24.0259C72.1727 23.766 72.3283 23.4274 72.3283 23.012C72.3283 22.6195 72.217 22.3071 71.9952 22.0755C71.714 21.7874 71.2861 21.6426 70.7122 21.6426H69.7458C69.5929 21.6426 69.5172 21.718 69.5172 21.8682V24.242C69.5172 24.3578 69.582 24.4157 69.7103 24.4157ZM67.5326 19.4243H70.7299C72.4866 19.4243 73.7225 19.8807 74.4371 20.7937C74.9046 21.3949 75.1393 22.1745 75.1393 23.1332C75.1393 24.312 74.7503 25.1953 73.971 25.7851C73.1923 26.3742 72.1699 26.6691 70.9053 26.6691H69.7813C69.6052 26.6691 69.5172 26.7559 69.5172 26.9283V30.9496C69.5172 31.2162 69.468 31.3831 69.3677 31.4525C69.2688 31.5218 69.1132 31.5562 68.9023 31.5562H67.5326C67.3217 31.5562 67.1804 31.5333 67.1101 31.4875C66.9818 31.3946 66.917 31.2162 66.917 30.9496V20.0309C66.917 19.8228 66.9402 19.6842 66.9873 19.6148C67.0808 19.4882 67.2623 19.4243 67.5326 19.4243Z" fill="#265AA6"/>
<path d="M25.9886 25.8825C25.9886 27.258 25.4406 28.5567 24.4462 29.5376C23.4519 30.5185 22.1361 31.0584 20.7411 31.0584C19.3468 31.0584 18.0304 30.5185 17.036 29.5376C16.0417 28.5567 15.4936 27.258 15.4936 25.8825V16.9412H25.9886V25.8825ZM26.8451 5.03887C26.8362 4.98838 26.8267 4.93856 26.8157 4.88874C26.7393 4.52114 26.6281 4.165 26.4868 3.82367C26.4568 3.75028 26.4254 3.67824 26.3926 3.6062C26.3182 3.4453 26.2377 3.28843 26.1503 3.13561C26.0753 3.005 25.9961 2.87708 25.9128 2.75253C25.8739 2.6953 25.835 2.63808 25.7948 2.5822C25.6787 2.42264 25.5559 2.26779 25.4256 2.11968C25.3607 2.04562 25.2932 1.97291 25.2249 1.90222C25.1737 1.84904 25.1205 1.79652 25.0666 1.74536C24.6939 1.38584 24.2756 1.07211 23.8218 0.813587C23.6921 0.739531 23.559 0.670187 23.4239 0.605556C23.3331 0.562468 23.2417 0.52207 23.1488 0.482347C23.0567 0.443974 22.9625 0.407621 22.8677 0.372614C22.7728 0.338278 22.6766 0.305958 22.5797 0.276335C22.4828 0.246038 22.3852 0.218435 22.2862 0.193525C22.1873 0.168615 22.0876 0.145054 21.9866 0.124857C21.8863 0.104658 21.7846 0.0864792 21.6822 0.0709953C21.5799 0.0555115 21.4768 0.0427208 21.3731 0.0319481C21.2687 0.0211754 21.1642 0.013773 21.0591 0.00771523C20.954 0.00300217 20.8476 0.000307083 20.7411 0.000307083C20.3685 0.000307083 20.0027 0.0326214 19.6471 0.0959072C19.5966 0.10466 19.5461 0.114758 19.4956 0.124857C18.7906 0.268257 18.1286 0.530151 17.5315 0.88899C17.4892 0.914574 17.4469 0.940828 17.4045 0.967085C17.3213 1.02027 17.2387 1.07548 17.1575 1.13271C16.9145 1.30371 16.6839 1.49154 16.4682 1.69419C16.3959 1.76219 16.3256 1.83153 16.2573 1.90222C16.0512 2.11497 15.8615 2.34253 15.6881 2.5822C15.6301 2.66232 15.5742 2.74378 15.5203 2.82659C15.4936 2.86766 15.467 2.9094 15.4404 2.95181C15.0773 3.54023 14.8119 4.19395 14.6665 4.88874C14.6563 4.93856 14.646 4.98838 14.6371 5.03887C14.573 5.38896 14.5396 5.74982 14.5396 6.11808V16.9412V25.8825C14.5396 29.2474 17.3301 31.9996 20.7411 31.9996C24.1521 31.9996 26.9427 29.2474 26.9427 25.8825V16.9412V6.11808C26.9427 5.74982 26.9092 5.38896 26.8451 5.03887Z" fill="#265AA6"/>
<path d="M0.954086 6.11777C0.954086 4.74166 1.50142 3.44365 2.49646 2.46273C3.49081 1.48181 4.8066 0.941196 6.20088 0.941196C7.59584 0.941196 8.91231 1.48181 9.90666 2.46273C10.901 3.44365 11.4484 4.74166 11.4484 6.11777V15.0591H0.954086V6.11777ZM0.0975925 26.9614C0.106465 27.0119 0.116019 27.0617 0.126256 27.1116C0.203375 27.4792 0.314616 27.8353 0.455204 28.1766C0.485233 28.25 0.516626 28.3221 0.550067 28.3941C0.623773 28.555 0.704986 28.7119 0.792342 28.8647C0.866731 28.9953 0.945897 29.1232 1.02984 29.2478C1.06806 29.305 1.10764 29.3616 1.14791 29.4174C1.26393 29.5777 1.38677 29.7318 1.51712 29.88C1.58195 29.954 1.64884 30.0267 1.71776 30.0981C1.76895 30.1513 1.8215 30.2031 1.87541 30.255C2.24804 30.6145 2.66639 30.9282 3.12091 31.1867C3.25058 31.2601 3.38366 31.3294 3.51879 31.3941C3.60956 31.4372 3.70033 31.4782 3.79382 31.5173C3.88596 31.5563 3.98014 31.5927 4.075 31.627C4.16918 31.6614 4.26541 31.6937 4.36232 31.724C4.45923 31.7536 4.5575 31.7812 4.65646 31.8068C4.75473 31.8317 4.85506 31.8546 4.95538 31.8754C5.05638 31.8956 5.15807 31.9138 5.26044 31.9293C5.36213 31.9448 5.46586 31.9576 5.5696 31.9684C5.67333 31.9791 5.77775 31.9865 5.88353 31.9919C5.98863 31.9973 6.09441 32 6.20088 32C6.57419 32 6.93999 31.967 7.29555 31.9037C7.34605 31.895 7.39656 31.8855 7.44706 31.8754C8.15205 31.732 8.81404 31.4695 9.41051 31.1113C9.45351 31.0851 9.49582 31.0595 9.53745 31.0325C9.62139 30.9794 9.70397 30.9248 9.78518 30.8676C10.0281 30.6966 10.2588 30.5088 10.4745 30.3054C10.5461 30.2381 10.6164 30.1688 10.6854 30.0981C10.8908 29.8853 11.0812 29.6578 11.2545 29.4174C11.3125 29.338 11.3685 29.2565 11.4224 29.1737C11.449 29.132 11.4757 29.0909 11.5016 29.0485C11.8653 28.4601 12.1308 27.8064 12.2762 27.1116C12.2864 27.0617 12.2967 27.0119 12.3055 26.9614C12.3697 26.6107 12.4024 26.2505 12.4024 25.8822V15.0591V6.11777C12.4024 2.7529 9.61252 1.90735e-06 6.20088 1.90735e-06C2.7906 1.90735e-06 0 2.7529 0 6.11777V15.0591V25.8822C0 26.2505 0.0334408 26.6107 0.0975925 26.9614Z" fill="#265AA6"/>
</svg>
