<svg width="18" height="12" viewBox="0 0 18 12" fill="none" xmlns="http://www.w3.org/2000/svg">
<path fill-rule="evenodd" clip-rule="evenodd" d="M0 1C5.96046e-08 0.447715 0.447715 0 1 0L17 1.37091e-06C17.5523 1.43051e-06 18 0.447717 18 1C18 1.55229 17.5523 2 17 2L1 2C0.447715 2 0 1.55228 0 1ZM0 6C5.96046e-08 5.44772 0.447715 5 1 5L11 5C11.5523 5 12 5.44772 12 6C12 6.55229 11.5523 7 11 7L1 7C0.447715 7 0 6.55228 0 6ZM0 11C0 10.4477 0.447715 10 1 10H6C6.55228 10 7 10.4477 7 11C7 11.5523 6.55228 12 6 12H1C0.447715 12 0 11.5523 0 11Z" fill="black" fill-opacity="0.16"/>
</svg>
